<?xml version="1.0" encoding="UTF-8"?>
<svg xmlns="http://www.w3.org/2000/svg" xmlns:xlink="http://www.w3.org/1999/xlink" width="700px" height="700px" viewBox="0 0 700 700" version="1.1">
<g id="surface1">
<path style=" stroke:none;fill-rule:nonzero;fill:rgb(7.058824%,7.450981%,7.058824%);fill-opacity:1;" d="M 296.042969 4.230469 C 105.351562 33.980469 -25.578125 213.324219 4.199219 403.957031 C 33.949219 594.589844 213.296875 725.519531 403.957031 695.742188 C 594.589844 665.992188 725.519531 486.644531 695.742188 295.984375 C 666.019531 105.378906 486.675781 -25.550781 296.042969 4.230469 Z M 303.070312 49.4375 C 324.800781 46.023438 346.355469 45.0625 367.441406 46.257812 C 339.820312 80.355469 298.199219 115.414062 235.519531 141.664062 C 176.253906 166.484375 115.441406 192.003906 68.773438 234.121094 C 109.261719 135.859375 198.074219 65.839844 303.070312 49.410156 Z M 49.410156 396.898438 C 46.894531 380.789062 45.671875 364.5 45.761719 348.191406 C 51.421875 332.324219 58.597656 317.859375 67.402344 304.734375 C 107.363281 244.914062 178.238281 215.25 253.195312 183.835938 C 338.625 148.078125 389.316406 97.007812 418.921875 53.695312 C 434.730469 57.398438 450.160156 62.328125 465.003906 68.453125 C 459.71875 84.882812 452.675781 100.695312 444.003906 115.617188 C 421.515625 154.613281 375.550781 210.4375 284.347656 254.742188 C 223.796875 284.199219 148.457031 320.832031 103.980469 403.140625 C 91.078125 427.414062 81.316406 453.230469 74.929688 479.964844 C 62.480469 453.644531 53.886719 425.667969 49.410156 396.898438 Z M 110.890625 537.921875 C 130.667969 380.390625 215.746094 339.003906 304.382812 295.894531 C 385.292969 256.519531 435.457031 208.660156 466.550781 165.230469 C 453.425781 237.941406 419.765625 307.152344 365.925781 371.757812 C 310.742188 437.964844 256.054688 518.699219 268.886719 615.359375 C 270.199219 625.160156 272.183594 634.957031 274.835938 644.730469 C 209.988281 628.007812 152.410156 590.488281 110.921875 537.921875 Z M 401.070312 401.070312 C 497.027344 285.863281 517.941406 173.191406 518.554688 98.902344 L 518.554688 96.890625 C 570.710938 131.570312 610.890625 181.5 633.617188 239.867188 C 629.597656 265.46875 622.699219 290.535156 613.054688 314.589844 C 583.128906 388.964844 531.125 444.585938 458.441406 479.910156 C 409.148438 503.882812 355.132812 533.371094 312.753906 584.996094 C 313.425781 516.335938 355.105469 456.167969 401.070312 401.070312 Z M 396.957031 650.535156 C 373.460938 654.207031 349.617188 655.121094 325.910156 653.246094 C 325.335938 651.816406 324.78125 650.375 324.246094 648.929688 C 358.3125 588.699219 410.726562 553.992188 478.449219 521.0625 C 579.542969 471.917969 629.535156 394.1875 653.886719 335.5625 C 661.296875 488.6875 551.804688 626.382812 396.929688 650.5625 Z M 396.957031 650.535156 "/>
</g>
</svg>
