<svg xmlns="http://www.w3.org/2000/svg" xmlns:xlink="http://www.w3.org/1999/xlink" width="30px" height="30px" viewBox="0 0 30 30" version="1.1">
<g id="surface1">
<path style=" stroke:none;fill-rule:nonzero;fill:rgb(7.058824%,7.450981%,7.058824%);fill-opacity:1;" d="M 12.6875 0.179688 C 4.515625 1.457031 -1.09375 9.140625 0.179688 17.3125 C 1.457031 25.484375 9.140625 31.09375 17.3125 29.820312 C 25.484375 28.542969 31.09375 20.859375 29.820312 12.6875 C 28.542969 4.515625 20.859375 -1.09375 12.6875 0.179688 Z M 12.988281 2.117188 C 13.917969 1.972656 14.84375 1.929688 15.75 1.984375 C 14.5625 3.445312 12.78125 4.945312 10.09375 6.070312 C 7.554688 7.136719 4.949219 8.230469 2.949219 10.035156 C 4.628906 5.96875 8.332031 2.84375 12.988281 2.117188 Z M 2.117188 17.011719 C 2.007812 16.308594 1.957031 15.613281 1.960938 14.925781 C 2.203125 14.246094 2.511719 13.625 2.886719 13.0625 C 4.601562 10.496094 7.636719 9.226562 10.851562 7.878906 C 14.511719 6.347656 16.683594 4.160156 17.953125 2.300781 C 18.632812 2.460938 19.292969 2.671875 19.929688 2.933594 C 19.757812 3.480469 19.476562 4.179688 19.027344 4.957031 C 18.066406 6.628906 16.09375 9.019531 12.1875 10.917969 C 9.589844 12.179688 6.363281 13.75 4.457031 17.277344 C 3.925781 18.257812 3.511719 19.351562 3.210938 20.570312 C 2.691406 19.46875 2.316406 18.277344 2.117188 17.011719 Z M 4.753906 23.054688 C 5.601562 16.304688 9.246094 14.527344 13.042969 12.683594 C 16.511719 10.996094 18.664062 8.945312 19.996094 7.082031 C 19.433594 10.199219 17.988281 13.164062 15.683594 15.933594 C 13.316406 18.773438 10.972656 22.230469 11.523438 26.375 C 11.578125 26.792969 11.664062 27.214844 11.777344 27.632812 C 8.996094 26.917969 6.523438 25.296875 4.753906 23.054688 Z M 17.1875 17.191406 C 21.300781 12.253906 22.195312 7.421875 22.222656 4.242188 C 22.226562 4.210938 22.222656 4.183594 22.226562 4.152344 C 24.417969 5.617188 26.167969 7.734375 27.15625 10.28125 C 27.027344 11.089844 26.777344 12.230469 26.273438 13.484375 C 24.992188 16.671875 22.761719 19.054688 19.648438 20.570312 C 17.535156 21.597656 15.21875 22.859375 13.40625 25.074219 C 13.433594 22.128906 15.21875 19.550781 17.1875 17.191406 Z M 17.011719 27.882812 C 15.984375 28.042969 14.960938 28.078125 13.96875 27.996094 C 13.941406 27.9375 13.917969 27.875 13.898438 27.8125 C 15.355469 25.230469 17.601562 23.742188 20.503906 22.332031 C 24.835938 20.226562 26.980469 16.894531 28.023438 14.382812 C 28.339844 20.945312 23.648438 26.847656 17.011719 27.882812 Z M 17.011719 27.882812 "/>
</g>
</svg>