<svg xmlns="http://www.w3.org/2000/svg" xmlns:xlink="http://www.w3.org/1999/xlink" width="570px" height="120px" viewBox="0 0 570 120" version="1.1">
<g id="surface1">
<path style=" stroke:none;fill-rule:nonzero;fill:#121312;fill-opacity:1;" d="M 50.746094 0.722656 C 18.0625 5.824219 -4.378906 36.570312 0.722656 69.253906 C 5.824219 101.9375 36.570312 124.378906 69.253906 119.277344 C 101.9375 114.175781 124.378906 83.429688 119.277344 50.746094 C 114.175781 18.0625 83.429688 -4.378906 50.746094 0.722656 Z M 51.957031 8.472656 C 55.679688 7.890625 59.375 7.722656 62.992188 7.933594 C 58.257812 13.773438 51.117188 19.785156 40.375 24.285156 C 30.214844 28.542969 19.792969 32.914062 11.792969 40.136719 C 18.523438 23.871094 33.324219 11.378906 51.957031 8.472656 Z M 8.472656 68.042969 C 8.035156 65.238281 7.832031 62.449219 7.847656 59.695312 C 8.816406 56.976562 10.046875 54.5 11.554688 52.242188 C 18.40625 41.988281 30.550781 36.902344 43.40625 31.519531 C 58.050781 25.386719 66.742188 16.636719 71.816406 9.210938 C 74.527344 9.847656 77.171875 10.691406 79.71875 11.738281 C 79.027344 13.917969 77.910156 16.710938 76.117188 19.824219 C 72.257812 26.511719 64.378906 36.078125 48.746094 43.679688 C 38.363281 48.726562 25.449219 55.007812 17.824219 69.117188 C 15.707031 73.03125 14.050781 77.402344 12.847656 82.285156 C 10.761719 77.878906 9.261719 73.101562 8.472656 68.042969 Z M 19.007812 92.21875 C 22.402344 65.214844 36.984375 58.117188 52.179688 50.726562 C 66.046875 43.984375 74.648438 35.773438 79.984375 28.328125 C 77.734375 40.792969 71.960938 52.660156 62.730469 63.738281 C 53.269531 75.089844 43.894531 88.925781 46.09375 105.492188 C 46.316406 107.175781 46.660156 108.859375 47.117188 110.527344 C 35.976562 107.671875 26.085938 101.183594 19.011719 92.21875 Z M 68.753906 68.757812 C 85.207031 49.011719 88.789062 29.695312 88.898438 16.964844 C 88.898438 16.84375 88.898438 16.734375 88.898438 16.617188 C 97.679688 22.46875 104.671875 30.945312 108.621094 41.121094 C 108.117188 44.363281 107.109375 48.925781 105.09375 53.9375 C 99.964844 66.683594 91.050781 76.21875 78.589844 82.277344 C 70.144531 86.382812 60.878906 91.441406 53.617188 100.289062 C 53.734375 88.519531 60.878906 78.207031 68.753906 68.757812 Z M 68.046875 111.527344 C 63.933594 112.171875 59.851562 112.308594 55.867188 111.992188 C 55.769531 111.746094 55.675781 111.496094 55.585938 111.25 C 61.421875 100.925781 70.410156 94.972656 82.015625 89.332031 C 99.351562 80.902344 107.917969 67.582031 112.097656 57.527344 C 113.367188 83.785156 94.59375 107.386719 68.046875 111.53125 Z M 68.046875 111.527344 "/>
<path style=" stroke:none;fill-rule:nonzero;fill:#121312;fill-opacity:1;" d="M 168.800781 100 L 168.800781 23 L 216.210938 23 L 216.210938 31.359375 L 178.039062 31.359375 L 178.039062 57.101562 L 213.128906 57.101562 L 213.128906 65.460938 L 178.039062 65.460938 L 178.039062 91.640625 L 216.761719 91.640625 L 216.761719 100 Z M 246.511719 100 C 243.433594 100 241.050781 99.15625 239.363281 97.46875 C 237.75 95.785156 236.941406 93.472656 236.941406 90.539062 L 236.941406 53.800781 L 220.773438 53.800781 L 220.773438 46.210938 L 236.941406 46.210938 L 236.941406 27.070312 L 245.632812 27.070312 L 245.632812 46.210938 L 263.234375 46.210938 L 263.234375 53.800781 L 245.632812 53.800781 L 245.632812 89.21875 C 245.632812 91.421875 246.695312 92.519531 248.824219 92.519531 L 260.8125 92.519531 L 260.8125 100 Z M 272.90625 100 L 272.90625 23 L 281.597656 23 L 281.597656 54.789062 L 283.136719 54.789062 C 283.871094 53.175781 284.972656 51.671875 286.4375 50.28125 C 287.976562 48.8125 289.921875 47.601562 292.269531 46.648438 C 294.6875 45.695312 297.730469 45.21875 301.398438 45.21875 C 305.429688 45.21875 309.023438 46.101562 312.179688 47.859375 C 315.40625 49.546875 317.972656 52.039062 319.878906 55.339844 C 321.785156 58.566406 322.738281 62.601562 322.738281 67.441406 L 322.738281 100 L 314.046875 100 L 314.046875 68.101562 C 314.046875 62.746094 312.691406 58.859375 309.976562 56.441406 C 307.339844 54.019531 303.746094 52.808594 299.199219 52.808594 C 293.992188 52.808594 289.738281 54.496094 286.4375 57.871094 C 283.210938 61.242188 281.597656 66.265625 281.597656 72.941406 L 281.597656 100 Z M 360.609375 101.539062 C 355.183594 101.539062 350.414062 100.402344 346.308594 98.128906 C 342.203125 95.785156 339.011719 92.519531 336.738281 88.339844 C 334.464844 84.160156 333.328125 79.320312 333.328125 73.820312 L 333.328125 72.5 C 333.328125 66.925781 334.464844 62.050781 336.738281 57.871094 C 339.011719 53.691406 342.164062 50.464844 346.199219 48.191406 C 350.234375 45.84375 354.851562 44.671875 360.058594 44.671875 C 365.117188 44.671875 369.59375 45.769531 373.480469 47.96875 C 377.367188 50.097656 380.410156 53.175781 382.609375 57.210938 C 384.808594 61.242188 385.910156 65.972656 385.910156 71.398438 L 385.910156 75.359375 L 342.019531 75.359375 C 342.238281 81.152344 344.109375 85.699219 347.628906 89 C 351.148438 92.226562 355.550781 93.839844 360.828125 93.839844 C 365.449219 93.839844 369.003906 92.777344 371.5 90.648438 C 373.992188 88.523438 375.898438 85.992188 377.21875 83.058594 L 384.699219 86.691406 C 383.597656 88.964844 382.058594 91.238281 380.078125 93.511719 C 378.171875 95.785156 375.640625 97.691406 372.488281 99.230469 C 369.410156 100.769531 365.449219 101.539062 360.609375 101.539062 Z M 342.128906 68.210938 L 377.109375 68.210938 C 376.816406 63.222656 375.09375 59.335938 371.9375 56.550781 C 368.859375 53.761719 364.898438 52.371094 360.058594 52.371094 C 355.144531 52.371094 351.113281 53.761719 347.960938 56.550781 C 344.804688 59.335938 342.863281 63.222656 342.128906 68.210938 Z M 396.667969 100 L 396.667969 46.210938 L 405.136719 46.210938 L 405.136719 52.808594 L 406.675781 52.808594 C 407.628906 50.464844 409.097656 48.738281 411.078125 47.640625 C 413.054688 46.539062 415.660156 45.988281 418.886719 45.988281 L 425.265625 45.988281 L 425.265625 53.910156 L 418.335938 53.910156 C 414.449219 53.910156 411.296875 55.011719 408.875 57.210938 C 406.53125 59.335938 405.355469 62.671875 405.355469 67.21875 L 405.355469 100 Z M 456.4375 101.539062 C 451.011719 101.539062 446.246094 100.402344 442.136719 98.128906 C 438.03125 95.785156 434.839844 92.519531 432.566406 88.339844 C 430.292969 84.160156 429.15625 79.320312 429.15625 73.820312 L 429.15625 72.5 C 429.15625 66.925781 430.292969 62.050781 432.566406 57.871094 C 434.839844 53.691406 437.996094 50.464844 442.027344 48.191406 C 446.0625 45.84375 450.679688 44.671875 455.886719 44.671875 C 460.949219 44.671875 465.421875 45.769531 469.308594 47.96875 C 473.195312 50.097656 476.238281 53.175781 478.4375 57.210938 C 480.636719 61.242188 481.738281 65.972656 481.738281 71.398438 L 481.738281 75.359375 L 437.847656 75.359375 C 438.066406 81.152344 439.9375 85.699219 443.457031 89 C 446.976562 92.226562 451.378906 93.839844 456.65625 93.839844 C 461.277344 93.839844 464.835938 92.777344 467.328125 90.648438 C 469.820312 88.523438 471.726562 85.992188 473.046875 83.058594 L 480.527344 86.691406 C 479.429688 88.964844 477.886719 91.238281 475.90625 93.511719 C 474 95.785156 471.472656 97.691406 468.316406 99.230469 C 465.238281 100.769531 461.277344 101.539062 456.4375 101.539062 Z M 437.957031 68.210938 L 472.9375 68.210938 C 472.644531 63.222656 470.921875 59.335938 467.769531 56.550781 C 464.6875 53.761719 460.726562 52.371094 455.886719 52.371094 C 450.972656 52.371094 446.941406 53.761719 443.789062 56.550781 C 440.632812 59.335938 438.691406 63.222656 437.957031 68.210938 Z M 508.996094 101.539062 C 505.253906 101.539062 501.84375 100.878906 498.765625 99.558594 C 495.683594 98.238281 493.265625 96.332031 491.503906 93.839844 C 489.746094 91.347656 488.867188 88.304688 488.867188 84.710938 C 488.867188 81.042969 489.746094 78.035156 491.503906 75.691406 C 493.265625 73.269531 495.683594 71.472656 498.765625 70.300781 C 501.84375 69.054688 505.289062 68.429688 509.105469 68.429688 L 527.253906 68.429688 L 527.253906 64.46875 C 527.253906 60.65625 526.121094 57.648438 523.84375 55.449219 C 521.644531 53.25 518.34375 52.148438 513.945312 52.148438 C 509.621094 52.148438 506.246094 53.214844 503.824219 55.339844 C 501.40625 57.394531 499.753906 60.179688 498.875 63.699219 L 490.734375 61.058594 C 491.617188 58.054688 493.007812 55.339844 494.914062 52.921875 C 496.824219 50.425781 499.351562 48.445312 502.503906 46.980469 C 505.730469 45.441406 509.578125 44.671875 514.054688 44.671875 C 520.949219 44.671875 526.300781 46.464844 530.113281 50.058594 C 533.929688 53.578125 535.835938 58.566406 535.835938 65.019531 L 535.835938 89.328125 C 535.835938 91.53125 536.859375 92.628906 538.914062 92.628906 L 543.863281 92.628906 L 543.863281 100 L 536.273438 100 C 533.855469 100 531.910156 99.339844 530.445312 98.019531 C 528.980469 96.625 528.246094 94.792969 528.246094 92.519531 L 528.246094 91.96875 L 526.925781 91.96875 C 526.121094 93.363281 525.019531 94.828125 523.625 96.371094 C 522.304688 97.835938 520.46875 99.046875 518.125 100 C 515.78125 101.027344 512.734375 101.539062 508.996094 101.539062 Z M 509.984375 94.058594 C 515.121094 94.058594 519.261719 92.554688 522.414062 89.550781 C 525.640625 86.46875 527.253906 82.179688 527.253906 76.679688 L 527.253906 75.46875 L 509.433594 75.46875 C 505.988281 75.46875 503.128906 76.238281 500.855469 77.78125 C 498.65625 79.246094 497.554688 81.484375 497.554688 84.488281 C 497.554688 87.496094 498.691406 89.84375 500.964844 91.53125 C 503.308594 93.214844 506.320312 94.058594 509.984375 94.058594 Z M 551.363281 100 L 551.363281 23 L 560.054688 23 L 560.054688 100 Z M 551.363281 100 "/>
</g>
</svg>
