<?xml version="1.0" encoding="UTF-8"?>
<svg xmlns="http://www.w3.org/2000/svg" xmlns:xlink="http://www.w3.org/1999/xlink" width="276px" height="276px" viewBox="0 0 276 276" version="1.1">
<g id="surface1">
<path style=" stroke:none;fill-rule:nonzero;fill:rgb(7.058824%,7.450981%,7.058824%);fill-opacity:1;" d="M 116.726562 1.671875 C 41.535156 13.394531 -10.089844 84.113281 1.652344 159.273438 C 13.386719 234.4375 84.101562 286.0625 159.273438 274.320312 C 234.4375 262.59375 286.0625 191.878906 274.320312 116.699219 C 262.605469 41.550781 191.886719 -10.070312 116.726562 1.671875 Z M 119.492188 19.496094 C 128.0625 18.148438 136.5625 17.769531 144.871094 18.238281 C 133.984375 31.679688 117.578125 45.503906 92.863281 55.855469 C 69.496094 65.640625 45.515625 75.703125 27.113281 92.316406 C 43.082031 53.566406 78.101562 25.964844 119.492188 19.476562 Z M 19.476562 156.488281 C 18.488281 150.136719 18.003906 143.714844 18.039062 137.289062 C 20.277344 131.027344 23.109375 125.324219 26.574219 120.148438 C 42.335938 96.5625 70.277344 84.867188 99.835938 72.484375 C 133.515625 58.390625 153.496094 38.246094 165.175781 21.167969 C 171.402344 22.632812 177.496094 24.574219 183.34375 26.988281 C 181.261719 33.464844 178.484375 39.703125 175.058594 45.585938 C 166.203125 60.957031 148.070312 82.972656 112.117188 100.445312 C 88.234375 112.054688 58.535156 126.5 40.996094 158.953125 C 35.910156 168.519531 32.066406 178.699219 29.539062 189.246094 C 24.636719 178.871094 21.246094 167.835938 19.476562 156.488281 Z M 43.726562 212.09375 C 51.515625 149.984375 85.0625 133.660156 120.011719 116.671875 C 151.917969 101.144531 171.691406 82.269531 183.957031 65.144531 C 178.78125 93.816406 165.511719 121.109375 144.28125 146.582031 C 122.519531 172.679688 100.957031 204.519531 106.015625 242.621094 C 106.535156 246.496094 107.316406 250.359375 108.359375 254.203125 C 82.800781 247.609375 60.097656 232.820312 43.734375 212.09375 Z M 158.132812 158.132812 C 195.96875 112.707031 204.214844 68.289062 204.457031 38.992188 L 204.457031 38.203125 C 225.023438 51.875 240.863281 71.558594 249.828125 94.578125 C 248.238281 104.667969 245.523438 114.550781 241.714844 124.039062 C 229.917969 153.363281 209.417969 175.292969 180.757812 189.21875 C 161.324219 198.671875 140.019531 210.296875 123.308594 230.65625 C 123.582031 203.585938 140.011719 179.859375 158.132812 158.132812 Z M 156.515625 256.496094 C 147.253906 257.941406 137.847656 258.300781 128.503906 257.5625 C 128.277344 256.996094 128.054688 256.433594 127.847656 255.867188 C 141.277344 232.121094 161.941406 218.429688 188.644531 205.445312 C 228.507812 186.066406 248.21875 155.421875 257.816406 132.304688 C 260.734375 192.679688 217.566406 246.972656 156.507812 256.503906 Z M 156.515625 256.496094 "/>
</g>
</svg>
